<svg id="Layer_1" data-name="Layer 1" xmlns="http://www.w3.org/2000/svg" xmlns:xlink="http://www.w3.org/1999/xlink" viewBox="0 0 792 378.35"><defs><style>.cls-1,.cls-12,.cls-6,.cls-9{fill:none;}.cls-2{clip-path:url(#clip-path);}.cls-3{clip-path:url(#clip-path-2);}.cls-4{clip-path:url(#clip-path-3);}.cls-5{fill:#f68c42;}.cls-12,.cls-6,.cls-9{stroke:#231f20;stroke-miterlimit:10;}.cls-6{stroke-width:2.99px;}.cls-7{font-size:88.99px;}.cls-7,.cls-8{fill:#eeda74;font-family:ARJULIAN, ARJULIAN;}.cls-8{font-size:48.54px;}.cls-9{stroke-width:1.99px;}.cls-10{clip-path:url(#clip-path-6);}.cls-11{fill:#0c8140;}.cls-12{stroke-width:3.99px;}</style><clipPath id="clip-path"><polygon class="cls-1" points="-5.75 6 791 6 791 384.35 471.81 384.35 446 328.54 417.38 320.86 -1.12 328.54 -5.75 6"/></clipPath><clipPath id="clip-path-2"><rect class="cls-1" x="-5.75" y="6" width="796.75" height="378.35"/></clipPath><clipPath id="clip-path-3"><rect class="cls-1" x="-5.75" y="6" width="796.75" height="378.35"/></clipPath><clipPath id="clip-path-6"><rect class="cls-1" x="184.2" y="175.55" width="605.79" height="183.77"/></clipPath></defs><title>Artboard 1</title><g class="cls-2"><g class="cls-3"><g class="cls-4"><path class="cls-5" d="M465.28,7.52C377.66,7.52,304,65.89,282.61,145H299.8c21.81-68.44,89-118.28,168.58-118.28S615.15,76.61,637,145h11C626.55,65.89,552.89,7.52,465.28,7.52"/><path class="cls-6" d="M465.28,7.52C377.66,7.52,304,65.89,282.61,145H299.8c21.81-68.44,89-118.28,168.58-118.28S615.15,76.61,637,145h11C626.55,65.89,552.89,7.52,465.28,7.52Z"/></g><text class="cls-7" transform="translate(5.33 201.86)">Mid-South Feeds</text><g class="cls-4"><path class="cls-6" d="M53.3,193.86q0,2-2.61,3.39T48,199.51q0,2.35,2.09,2.35H70.34a1.86,1.86,0,0,0,1.69-.74,2.93,2.93,0,0,0,.48-1.61,1.38,1.38,0,0,0-.74-1.39c-.49-.23-1-.49-1.61-.78q-3-1.65-3-3.48V149.63q0-2.08,2.61-3.48t2.69-2.26c0-1.56-.72-2.35-2.17-2.35H57.91q-2.79,0-6.78,6.08a8.39,8.39,0,0,0-.7,1.26q-.7,1.35-1.91,3.39t-2.65,4.52q-1.43,2.48-2.82,4.65c-.93,1.45-1.78,2.69-2.56,3.74s-1.38,1.63-1.78,1.74a14.22,14.22,0,0,1-2.17-2.48q-1.48-2-3.3-4.56l-3.91-5.61q-2.08-3-4.08-5.61t-3.74-4.56a12.18,12.18,0,0,0-2.87-2.56H7.76a1.34,1.34,0,0,0-1.22.87,7,7,0,0,1-1,1.48q0,1.57,2.69,2.44t2.78,3.3v44.24q0,1.91-2.78,3.39t-2.69,2.26q0,2.35,2.17,2.35H21.67a1.8,1.8,0,0,0,1.65-.7,4.75,4.75,0,0,0,.61-1.65,1.26,1.26,0,0,0-.7-1.21,15.81,15.81,0,0,0-1.65-1q-3-1.65-3-3.48V163.06a10.63,10.63,0,0,1,0-1.26,1.53,1.53,0,0,1,.13-.43c.23.06.74.56,1.52,1.52s1.69,2.16,2.74,3.6,2.2,3,3.48,4.74,2.54,3.38,3.78,5,2.43,3.08,3.56,4.39a22.59,22.59,0,0,0,2.91,2.91A39.19,39.19,0,0,0,41.57,178q2.26-3.08,4.3-6.21t3.87-6a54,54,0,0,1,3.56-5.08Z"/><path class="cls-6" d="M93.71,201.86c1.16,0,1.74-.64,1.74-1.91,0-.75-.76-1.36-2.26-1.82A2.78,2.78,0,0,1,91,195.43V160.14a2.79,2.79,0,0,1,2.17-2.69c1.51-.46,2.26-1.1,2.26-1.91,0-1.22-.58-1.82-1.74-1.82H77.38q-1.74,0-1.74,1.82,0,1.3,2.17,1.91A2.79,2.79,0,0,1,80,160.14v35.29a2.78,2.78,0,0,1-2.17,2.69q-2.17.61-2.17,1.82c0,1.28.58,1.91,1.74,1.91Z"/><path class="cls-6" d="M130.91,165.1q2.78,5.3,2.78,13.82a22.05,22.05,0,0,1-3.3,12.34,12.14,12.14,0,0,1-10.78,5.91,8.05,8.05,0,0,1-3.83-.87,3.12,3.12,0,0,1-2-3V162.4a3.36,3.36,0,0,1,1.74-3.3,8.07,8.07,0,0,1,4.08-1Q127.26,158.06,130.91,165.1Zm6,31q7.82-6.6,7.82-18.08,0-12.34-6.87-18.64t-19.21-6.3a65.12,65.12,0,0,0-11.3,1.22q-8.77,1.65-8.78,4.08,0,1.39,2,2t2,2v30.24a3.58,3.58,0,0,1-1.61,3q-1.61,1.17-1.61,1.69,0,2.6,8,4a58.72,58.72,0,0,0,10.43,1Q129.61,202.38,136.91,196.12Z"/><path class="cls-6" d="M181.66,176.22H149.24q-1.82,0-1.82,4.26a8.35,8.35,0,0,0,.48,3.39,1.48,1.48,0,0,0,1.35,1h32.42a1.48,1.48,0,0,0,1.35-1,8.35,8.35,0,0,0,.48-3.39Q183.49,176.22,181.66,176.22Z"/><path class="cls-6" d="M222.94,198.56q5.47-4.08,5.48-12.08a15.86,15.86,0,0,0-1.26-6.21,24.34,24.34,0,0,0-3.35-5.65,34.16,34.16,0,0,0-4.69-4.87,61.54,61.54,0,0,0-5.3-4q-2.26-1.48-4.61-2.91t-4.3-2.82a18,18,0,0,1-3.17-2.78,4.24,4.24,0,0,1-1.22-2.78q0-3,1.61-4.39A6.62,6.62,0,0,1,206,148.5a12.35,12.35,0,0,1,4.69.61,17.35,17.35,0,0,1,4.22,1.91q1.73,1.22,3.52,2.65t3.61,3.09q2.34,0,2.35-2.52a18.89,18.89,0,0,0-.48-2.82,43.62,43.62,0,0,0-1.31-4.65,24,24,0,0,0-1.91-4.3c-.73-1.25-1.49-1.84-2.31-1.78a2,2,0,0,0-.78.61,10.21,10.21,0,0,1-.74.83,5.27,5.27,0,0,1-.78.65,1.21,1.21,0,0,1-.91.17,22.11,22.11,0,0,1-2.56-.39c-1-.2-2-.39-3-.56s-2-.33-3-.48a16.44,16.44,0,0,0-2.39-.22,20.82,20.82,0,0,0-6.95,1.13,17.83,17.83,0,0,0-5.61,3.13,14,14,0,0,0-3.69,4.69,13.37,13.37,0,0,0-1.3,5.91,14.51,14.51,0,0,0,.83,5,13.74,13.74,0,0,0,2.65,4.34,29.67,29.67,0,0,0,4.87,4.3q3,2.22,7.47,5l4.47,2.82a22.77,22.77,0,0,1,3.74,2.91,12.08,12.08,0,0,1,2.52,3.47,10.67,10.67,0,0,1,.91,4.61q0,3.82-2.74,5.47a10.44,10.44,0,0,1-6.52,1.31,21.88,21.88,0,0,1-15-8.87c-.11-.17-.34-.24-.69-.22a2.6,2.6,0,0,0-1,.35,3.2,3.2,0,0,0-.91.83,1.87,1.87,0,0,0-.39,1.13,26.49,26.49,0,0,0,.35,3.39,38.29,38.29,0,0,0,1,4.78,21.77,21.77,0,0,0,1.69,4.3c.67,1.24,1.44,1.87,2.31,1.87a2.36,2.36,0,0,0,1.78-1,4.75,4.75,0,0,1,2-1.39,4.93,4.93,0,0,1,2.35,0c1.1.21,2.26.45,3.48.74l3.56.83a13.06,13.06,0,0,0,2.69.39Q217.47,202.64,222.94,198.56Z"/><path class="cls-6" d="M232.68,187.82a21.91,21.91,0,0,0,4.56,7.73,21.1,21.1,0,0,0,7.39,5.13,25.46,25.46,0,0,0,10,1.87,25.8,25.8,0,0,0,10.08-1.87,21,21,0,0,0,7.43-5.13,22,22,0,0,0,4.56-7.73,31,31,0,0,0,0-19.47,22,22,0,0,0-4.56-7.73,21,21,0,0,0-7.43-5.13,25.72,25.72,0,0,0-10.08-1.87,25.39,25.39,0,0,0-10,1.87,21.08,21.08,0,0,0-7.39,5.13,22,22,0,0,0-4.56,7.73,31,31,0,0,0,0,19.47Zm34.5-9.78a39.1,39.1,0,0,1-.61,6.82,21.87,21.87,0,0,1-2,6.21,12.51,12.51,0,0,1-3.87,4.52,10.08,10.08,0,0,1-6,1.74,9.68,9.68,0,0,1-5.91-1.74,12.94,12.94,0,0,1-3.78-4.48,21,21,0,0,1-2-6.21,40.39,40.39,0,0,1-.61-7,38,38,0,0,1,.61-6.78,21.08,21.08,0,0,1,2-6.12,12.53,12.53,0,0,1,3.78-4.43,9.85,9.85,0,0,1,5.91-1.69,10.26,10.26,0,0,1,6,1.69,12.2,12.2,0,0,1,3.87,4.43,21.3,21.3,0,0,1,2,6.12,38.36,38.36,0,0,1,.61,6.78Z"/><path class="cls-6" d="M321.49,160.84q0-2.61,2.09-3.3c1.5-.47,2.26-1.1,2.26-1.91A1.61,1.61,0,0,0,324,153.8H312.81c-1.17,0-1.74.61-1.74,1.82,0,.87.7,1.51,2.08,1.91a2.79,2.79,0,0,1,2.18,2.69V187q0,4.52-2.74,6.86a10.9,10.9,0,0,1-7.35,2.35,9.15,9.15,0,0,1-6.43-2.3,8,8,0,0,1-2.52-6.21V160.23a2.78,2.78,0,0,1,2.17-2.69c1.45-.41,2.17-1,2.17-1.91,0-1.22-.58-1.82-1.74-1.82H282.73q-1.74,0-1.74,1.82c0,.87.72,1.51,2.17,1.91a2.76,2.76,0,0,1,2.09,2.69v27.64q0,6.52,5.82,10.51A21,21,0,0,0,303,201.86a25.44,25.44,0,0,0,6.74-.87,21.53,21.53,0,0,0,5.69-2.43,16.23,16.23,0,0,0,4.43-4.69,11.28,11.28,0,0,0,1.65-6Z"/><path class="cls-6" d="M367.77,164.1a2.08,2.08,0,0,0,.7-.39,5.29,5.29,0,0,0,.57-.56.59.59,0,0,0,.17-.57,19.33,19.33,0,0,0-2.52-6.17c-1.1-1.68-2.35-2.58-3.73-2.69H333.58a2.77,2.77,0,0,0-2.65,1.3c-.49.87-1.12,2-1.87,3.39a9.84,9.84,0,0,0-1.57,4.17q0,1.65,1.82,1.65,1,0,3.22-2.78a7.44,7.44,0,0,1,1.82-1.87,5,5,0,0,1,1.87-.74,10,10,0,0,1,2.09-.13c.72,0,1.57,0,2.56,0a1.82,1.82,0,0,1,1.52.52,2.44,2.44,0,0,1,.39,1.48l.09,34a3.51,3.51,0,0,1-3,3.65,1.5,1.5,0,0,0-1.3,1.65q0,1.83,1.74,1.82h16.07a1.61,1.61,0,0,0,1.82-1.82c0-.87-.72-1.51-2.17-1.91a2.76,2.76,0,0,1-2.08-2.69V160.75c0-1.33.75-2,2.26-2a18,18,0,0,1,4.56.48,5.11,5.11,0,0,1,2.48,1.26,11.2,11.2,0,0,0,1.74,2c.52.43,1.25,1,2.17,1.61C367.32,164.17,367.51,164.18,367.77,164.1Z"/><path class="cls-6" d="M386.24,170.83V160.14q0-1.82,2.17-2.61,2.17-.61,2.17-1.91,0-1.83-1.74-1.82H372.68c-1.16,0-1.74.61-1.74,1.82,0,.87.72,1.51,2.17,1.91a2.62,2.62,0,0,1,2.08,2.61v35.37a2.54,2.54,0,0,1-2.08,2.61c-1.45.52-2.17,1.16-2.17,1.91,0,1.22.57,1.82,1.74,1.82h16.17c1.16,0,1.74-.61,1.74-1.82q0-1.21-2.17-2a2.52,2.52,0,0,1-2.17-2.52v-16.6c0-.75.46-1.18,1.39-1.3h12.69c.93.12,1.39.55,1.39,1.3v16.6a2.5,2.5,0,0,1-2.08,2.52q-2.18.78-2.18,2c0,1.22.58,1.82,1.74,1.82h16.16c1.16,0,1.74-.61,1.74-1.82,0-.75-.73-1.39-2.17-1.91a2.56,2.56,0,0,1-2.17-2.61V160.14c0-1.21.72-2.08,2.17-2.61s2.17-1,2.17-1.91c0-1.22-.58-1.82-1.74-1.82H399.19q-1.74,0-1.74,1.82,0,1.3,2.18,1.91a2.72,2.72,0,0,1,2.08,2.61v10.69a1.23,1.23,0,0,1-1.39,1.39H387.63A1.23,1.23,0,0,1,386.24,170.83Z"/><path class="cls-6" d="M506.52,150.93a8.09,8.09,0,0,0-.35-2.17,21.38,21.38,0,0,0-3-5.87,3.94,3.94,0,0,0-3.22-1.26H464.46q-2.18,0-2.18,2.26,0,1.56,2.69,2.43t2.69,3.31v44q.18,3-3.65,3.91a1.91,1.91,0,0,0-1.65,2.08q0,2.26,2.17,2.26h20.25c1.44,0,2.17-.75,2.17-2.26a1.74,1.74,0,0,0-.78-1.39,5.88,5.88,0,0,0-2-1c-1.8-.52-2.7-1.94-2.7-4.26V174a2.13,2.13,0,0,1,1.18-2.17,5.82,5.82,0,0,1,2.39-.52c.35,0,.78,0,1.31,0s1.05.07,1.61.13,1.09.1,1.61.13.92,0,1.21,0a9.09,9.09,0,0,0,4.17-.78,3.12,3.12,0,0,0,1.48-3,3,3,0,0,0-1.52-2.91,8.11,8.11,0,0,0-3.87-.83c-.7,0-1.64.06-2.82.17s-2.1.17-2.74.17c-.46,0-.95,0-1.44,0a4.66,4.66,0,0,1-1.35-.26,2.25,2.25,0,0,1-1-.7,1.56,1.56,0,0,1-.22-1.35V150.41a2.38,2.38,0,0,1,.61-1.69,4,4,0,0,1,1.52-1,7.1,7.1,0,0,1,2-.43c.7-.06,1.36-.09,2-.09q8.08,0,10.26,1.39.69.44,2.39,1.57c1.13.75,2.53,1.71,4.21,2.87Z"/><path class="cls-6" d="M521.68,170.4a12.14,12.14,0,0,1,0-1.35c0-.67,0-1.65,0-3s0-3.09,0-5.35a2.49,2.49,0,0,1,.74-1.91q.73-.7,3.26-.7,3,0,4.82.09a11.84,11.84,0,0,1,3.09.52,9.57,9.57,0,0,1,2.48,1.26q1.18.83,3.17,2.39a1.15,1.15,0,0,0,1,.35,1.89,1.89,0,0,0,.78-.35,2,2,0,0,0,.57-.69,1.74,1.74,0,0,0,.22-.7,7.61,7.61,0,0,0-.48-2.61,10.28,10.28,0,0,0-1.22-2.35,7.17,7.17,0,0,0-1.65-1.69,3.32,3.32,0,0,0-2-.65H507.91q-1.74,0-1.74,1.82a1.2,1.2,0,0,0,.7,1.09l1.48.83a8.7,8.7,0,0,1,1.48,1,2.07,2.07,0,0,1,.7,1.65v35.29a2.17,2.17,0,0,1-.7,1.73,5.86,5.86,0,0,1-1.48,1q-.78.35-1.48.69a1.06,1.06,0,0,0-.7,1,2.43,2.43,0,0,0,.43,1.52,1.55,1.55,0,0,0,1.31.56H537.8a7.13,7.13,0,0,0,1.26-.26,3.14,3.14,0,0,0,1.61-1,10.35,10.35,0,0,0,1.13-1.74c.4-.75.78-1.52,1.13-2.3s.64-1.49.87-2.13a4.86,4.86,0,0,0,.35-1.39,1.31,1.31,0,0,0-.61-1.17,2.08,2.08,0,0,0-1.39-.3c-.17,0-.57.26-1.17.78s-1.35,1.21-2.22,2.08a7.25,7.25,0,0,1-2.69,1.69,11.33,11.33,0,0,1-3.3.65c-1.45.06-2.94.07-4.47,0s-2.82-.07-3.87-.13a8.17,8.17,0,0,1-2.13-.35c-.49-.17-.74-.87-.74-2.09V179.09a1.67,1.67,0,0,1,1.08-1.82,6.17,6.17,0,0,1,1.78-.35l1.48.13c.93.08,1.94.13,3,.13a7.41,7.41,0,0,0,3.3-.61,2.36,2.36,0,0,0,1.22-2.35,2.5,2.5,0,0,0-1.17-2.39,6.35,6.35,0,0,0-3.09-.65c-.58,0-1.33,0-2.26.13s-1.65.13-2.17.13a7.85,7.85,0,0,1-3-.61C521.73,170.78,521.71,170.63,521.68,170.4Z"/><path class="cls-6" d="M562.79,170.4a12.14,12.14,0,0,1,0-1.35c0-.67,0-1.65,0-3s0-3.09,0-5.35a2.49,2.49,0,0,1,.74-1.91q.73-.7,3.26-.7,3,0,4.82.09a11.84,11.84,0,0,1,3.09.52A9.57,9.57,0,0,1,577,160q1.18.83,3.17,2.39a1.15,1.15,0,0,0,1,.35,1.89,1.89,0,0,0,.78-.35,1.94,1.94,0,0,0,.57-.69,1.74,1.74,0,0,0,.22-.7,7.61,7.61,0,0,0-.48-2.61,10.28,10.28,0,0,0-1.22-2.35,7.17,7.17,0,0,0-1.65-1.69,3.32,3.32,0,0,0-2-.65H549q-1.74,0-1.74,1.82a1.2,1.2,0,0,0,.7,1.09l1.48.83a8.7,8.7,0,0,1,1.48,1,2.07,2.07,0,0,1,.7,1.65v35.29a2.17,2.17,0,0,1-.7,1.73,5.86,5.86,0,0,1-1.48,1q-.78.35-1.48.69a1.06,1.06,0,0,0-.7,1,2.43,2.43,0,0,0,.43,1.52,1.55,1.55,0,0,0,1.31.56h29.89a7.11,7.11,0,0,0,1.26-.26,3.14,3.14,0,0,0,1.61-1,10.35,10.35,0,0,0,1.13-1.74c.4-.75.78-1.52,1.13-2.3s.64-1.49.87-2.13a4.86,4.86,0,0,0,.35-1.39,1.31,1.31,0,0,0-.61-1.17,2.08,2.08,0,0,0-1.39-.3c-.17,0-.57.26-1.17.78s-1.35,1.21-2.22,2.08a7.24,7.24,0,0,1-2.69,1.69,11.33,11.33,0,0,1-3.3.65c-1.45.06-2.94.07-4.47,0s-2.82-.07-3.87-.13a8.17,8.17,0,0,1-2.13-.35c-.49-.17-.74-.87-.74-2.09V179.09a1.67,1.67,0,0,1,1.08-1.82,6.17,6.17,0,0,1,1.78-.35L567,177c.93.08,1.94.13,3,.13a7.41,7.41,0,0,0,3.3-.61,2.36,2.36,0,0,0,1.22-2.35,2.5,2.5,0,0,0-1.17-2.39,6.36,6.36,0,0,0-3.09-.65c-.58,0-1.33,0-2.26.13s-1.65.13-2.17.13a7.85,7.85,0,0,1-3-.61C562.83,170.78,562.82,170.63,562.79,170.4Z"/><path class="cls-6" d="M620.71,165.1q2.78,5.3,2.78,13.82a22.05,22.05,0,0,1-3.3,12.34,12.14,12.14,0,0,1-10.78,5.91,8.05,8.05,0,0,1-3.83-.87,3.12,3.12,0,0,1-2-3V162.4a3.36,3.36,0,0,1,1.74-3.3,8.08,8.08,0,0,1,4.09-1Q617.06,158.06,620.71,165.1Zm6,31q7.82-6.6,7.82-18.08,0-12.34-6.87-18.64t-19.21-6.3a65.12,65.12,0,0,0-11.3,1.22q-8.78,1.65-8.78,4.08,0,1.39,2,2c1.36.43,2,1.08,2,2v30.24a3.58,3.58,0,0,1-1.61,3c-1.08.78-1.61,1.35-1.61,1.69q0,2.6,8,4a58.72,58.72,0,0,0,10.43,1Q619.41,202.38,626.71,196.12Z"/><path class="cls-6" d="M666.16,199.08q4.34-3.22,4.34-9.65a12.87,12.87,0,0,0-1-5,19.17,19.17,0,0,0-2.65-4.48,28,28,0,0,0-3.74-3.87,39.49,39.49,0,0,0-4.26-3.17q-1.74-1.13-3.65-2.3t-3.48-2.3a15.29,15.29,0,0,1-2.52-2.22,3.33,3.33,0,0,1-1-2.22,4.41,4.41,0,0,1,1.26-3.52,5.07,5.07,0,0,1,3-1.22,10.06,10.06,0,0,1,3.74.48,12.58,12.58,0,0,1,3.35,1.57,29.51,29.51,0,0,1,2.87,2.13q1.38,1.18,2.87,2.48c1.21,0,1.82-.66,1.82-2a14.22,14.22,0,0,0-.39-2.3,33.22,33.22,0,0,0-1-3.69,19.71,19.71,0,0,0-1.52-3.43c-.58-1-1.19-1.49-1.82-1.43a3.73,3.73,0,0,0-.56.48c-.21.2-.41.42-.61.65a3,3,0,0,1-.65.57.87.87,0,0,1-.7.13c-.58-.06-1.26-.16-2-.3l-2.39-.44c-.81-.14-1.59-.28-2.35-.39a12.75,12.75,0,0,0-1.91-.17,16.62,16.62,0,0,0-5.61.91,14.34,14.34,0,0,0-4.43,2.48,11,11,0,0,0-2.91,3.73,10.73,10.73,0,0,0-1,4.7A10.34,10.34,0,0,0,640,172.7a24.57,24.57,0,0,0,3.87,3.48q2.39,1.78,6,4,1.9,1.22,3.61,2.26a16.22,16.22,0,0,1,3,2.3,9.6,9.6,0,0,1,2,2.78,8.83,8.83,0,0,1,.7,3.69,4.67,4.67,0,0,1-2.17,4.34,8.49,8.49,0,0,1-5.21,1,15.68,15.68,0,0,1-6.3-2.09,17.84,17.84,0,0,1-5.6-5,.55.55,0,0,0-.57-.22,2,2,0,0,0-.83.3,2.67,2.67,0,0,0-.74.65,1.45,1.45,0,0,0-.3.91,19,19,0,0,0,.3,2.65c.2,1.25.48,2.52.83,3.83a14.9,14.9,0,0,0,1.35,3.43c.55,1,1.18,1.48,1.87,1.48a1.86,1.86,0,0,0,1.44-.78,3.11,3.11,0,0,1,1.61-1,4.39,4.39,0,0,1,1.83,0c.87.15,1.79.33,2.78.57l2.82.65a10.33,10.33,0,0,0,2.13.3Q661.82,202.29,666.16,199.08Z"/></g><text class="cls-8" transform="translate(235.36 362.04)">Alma, GA</text><g class="cls-4"><path class="cls-9" d="M266.32,362a1.13,1.13,0,0,0,1.28-1.28,1,1,0,0,0-.52-.76l-1.19-.85c-.85-.63-1.52-1.11-2-1.44a2.4,2.4,0,0,1-.95-1.21q-2.28-6.49-4.55-12.92t-4.55-12.92a2.23,2.23,0,0,0-1.42-1.14,6.27,6.27,0,0,0-2.08-.38,3,3,0,0,0-1.59.45,2.56,2.56,0,0,0-1.06,1.25q-2.18,6.59-4.2,13t-4.29,12.94a5.24,5.24,0,0,1-1.47,1.9q-1.09.95-2.37,1.94a3.3,3.3,0,0,0,.12,1c.08.24.34.36.78.36H244q1.33,0,1.33-1.28,0-.76-1.28-1.23a1.69,1.69,0,0,1-1.28-1.66,15.81,15.81,0,0,1,.59-3.18q.6-2.32,2-6.12,1.18-3.42,2-5.81a34.44,34.44,0,0,1,1.47-3.62c.12.28.36.89.71,1.8s.71,1.91,1.09,3,.72,2.1,1,3.06a19.21,19.21,0,0,1,.55,2,1.85,1.85,0,0,1-1.4.4l-1.73,0a5.41,5.41,0,0,0-2.16.33,1.31,1.31,0,0,0-.73,1.33,1.57,1.57,0,0,0,.28.93,2,2,0,0,0,1,.64,4.48,4.48,0,0,0,1.61.22,8.72,8.72,0,0,0,1.9-.26,8.17,8.17,0,0,1,2.84.29l1.42,4.55a1.13,1.13,0,0,1-.38,1.25,4.57,4.57,0,0,1-1.71,1q-1,.38-1,1.14c0,.85.44,1.28,1.33,1.28Z"/><path class="cls-9" d="M276.94,339.29a1.54,1.54,0,0,1,1.14-1.52c.82-.22,1.23-.55,1.23-1q0-1-.95-1h-8.92q-.95,0-.95,1,0,.61,1.14,1a1.42,1.42,0,0,1,1.19,1.47v19.25a1.58,1.58,0,0,1-1.19,1.57c-.79.22-1.19.55-1.19,1a.84.84,0,0,0,1,.95h16.35a2.38,2.38,0,0,0,.95-.17,1.42,1.42,0,0,0,.62-.5,4.74,4.74,0,0,0,.45-.8l.5-1.09a7.84,7.84,0,0,0,.8-2.23c0-.57-.17-.85-.52-.83a1.89,1.89,0,0,0-1.14.59,23.19,23.19,0,0,1-1.85,1.59,2.77,2.77,0,0,1-1.61.69l-.52,0c-.19,0-.49,0-.9,0l-1.63,0q-1,0-2.68,0-.8,0-1-.42a3.62,3.62,0,0,1-.31-1Z"/><path class="cls-9" d="M310.07,358.54a1.79,1.79,0,0,1-1.14,1.52c-.79.38-1.19.7-1.19.95q0,1,.9,1h8.87a.8.8,0,0,0,.73-.33,1.26,1.26,0,0,0,.21-.71.55.55,0,0,0-.33-.57,5.86,5.86,0,0,1-.71-.38c-.85-.41-1.28-.92-1.28-1.52V339.29a1.65,1.65,0,0,1,1.14-1.52c.79-.41,1.18-.74,1.18-1q0-1-.95-1h-5.45q-1.13,0-2.94,2.66a2.79,2.79,0,0,0-.31.54c-.2.4-.48.89-.83,1.49l-1.16,2c-.42.72-.84,1.4-1.23,2a18.69,18.69,0,0,1-1.12,1.61,2.63,2.63,0,0,1-.76.76,5.54,5.54,0,0,1-1-1.09q-.64-.86-1.44-2l-1.73-2.44c-.62-.87-1.21-1.68-1.78-2.44s-1.11-1.42-1.61-2a6.1,6.1,0,0,0-1.23-1.14h-4.74a.56.56,0,0,0-.55.4,1.87,1.87,0,0,1-.4.64c0,.47.4.82,1.19,1a1.51,1.51,0,0,1,1.19,1.47v19.25c0,.6-.39,1.1-1.19,1.52s-1.19.7-1.19.95c0,.7.32,1,1,1h6.07a.77.77,0,0,0,.71-.31,2.44,2.44,0,0,0,.28-.74.6.6,0,0,0-.33-.5l-.71-.45a3.76,3.76,0,0,1-1-.71,1.16,1.16,0,0,1-.36-.8V346.42c0-.9,0-1.46,0-1.66a1.47,1.47,0,0,1,.07-.4,2.69,2.69,0,0,1,.64.69c.33.42.72.95,1.19,1.56l1.52,2.06q.83,1.14,1.66,2.18c.55.69,1.07,1.33,1.56,1.92a7.86,7.86,0,0,0,1.26,1.26,16.43,16.43,0,0,0,2.13-2.4q1-1.35,1.87-2.7c.59-.9,1.14-1.78,1.68-2.63a24.38,24.38,0,0,1,1.56-2.23Z"/><path class="cls-9" d="M344.15,362a.92.92,0,0,0,1-1c0-.19-.14-.39-.43-.59l-.95-.69q-1-.81-1.59-1.19a2.18,2.18,0,0,1-.78-.95q-1.8-5.21-3.63-10.36l-3.68-10.36a1.69,1.69,0,0,0-1.11-.92,5.06,5.06,0,0,0-1.68-.31,2.5,2.5,0,0,0-1.28.36,1.85,1.85,0,0,0-.85,1q-1.75,5.31-3.37,10.48t-3.46,10.38a3.88,3.88,0,0,1-1.16,1.52q-.88.76-1.92,1.56a2.15,2.15,0,0,0,.12.81c.08.19.29.28.64.28h6.16q1.09,0,1.09-1,0-.57-1-1a1.3,1.3,0,0,1-1-1.33,12.87,12.87,0,0,1,.47-2.54q.47-1.88,1.56-4.91.95-2.7,1.64-4.62t1.16-3l.57,1.49c.28.74.57,1.54.88,2.39s.57,1.67.83,2.44a10,10,0,0,1,.43,1.59,1.34,1.34,0,0,1-1.11.36l-1.4,0a4.49,4.49,0,0,0-1.73.26,1,1,0,0,0-.59,1.06c0,.6.36,1,1.09,1.23a5.27,5.27,0,0,0,2.8,0,8.72,8.72,0,0,1,2.27.19l1.14,3.65a.9.9,0,0,1-.29,1,3.76,3.76,0,0,1-1.38.81c-.53.19-.8.49-.8.9q0,1,1.09,1Z"/><path class="cls-9" d="M355.13,356.52a1.43,1.43,0,0,0-.55-.76,2.18,2.18,0,0,0-1-.33,12.62,12.62,0,0,0-1.4-.07,13.13,13.13,0,0,0-1.44.07,2.37,2.37,0,0,0-1,.33,1.53,1.53,0,0,0-.59.76,3.59,3.59,0,0,0-.19,1.26v3.65l-2.8,6.4a.68.68,0,0,0-.12.43.42.42,0,0,0,.21.31,1.77,1.77,0,0,0,.59.19,6.2,6.2,0,0,0,1.07.07,5.92,5.92,0,0,0,1-.07,3.64,3.64,0,0,0,.66-.17,1.65,1.65,0,0,0,.47-.26,2,2,0,0,0,.36-.36l3.08-4.45a7.07,7.07,0,0,0,.83-1.31,9.55,9.55,0,0,0,.52-1.33,8.3,8.3,0,0,0,.31-1.42,13.83,13.83,0,0,0,.09-1.68A4.08,4.08,0,0,0,355.13,356.52Z"/><path class="cls-9" d="M406.68,351.28a1.86,1.86,0,0,1,.33-1.09,3,3,0,0,1,.85-.8c1.08-.54,1.61-1,1.61-1.47a1,1,0,0,0-.62-.95,3.47,3.47,0,0,0-1.47-.29h-8.58a3.5,3.5,0,0,0-1.47.29,1,1,0,0,0-.62.95q0,.95,1.85,1.52a1.76,1.76,0,0,1,1.28,1.85v5.36a1.46,1.46,0,0,1-.35,1,2.78,2.78,0,0,1-.78.66,8.31,8.31,0,0,1-2.18.24,9.21,9.21,0,0,1-4.5-1,8.13,8.13,0,0,1-2.92-2.7,11.53,11.53,0,0,1-1.59-4,22.79,22.79,0,0,1,0-9.17,17.68,17.68,0,0,1,1.42-4.36,10.11,10.11,0,0,1,2.56-3.37,5.76,5.76,0,0,1,3.86-1.35,11,11,0,0,1,3.56.59,7.55,7.55,0,0,1,3,1.82,3.74,3.74,0,0,0,.57.55l.45.31a3.25,3.25,0,0,1,.45.36,7.89,7.89,0,0,1,.62.64.83.83,0,0,0,.61.31,1.37,1.37,0,0,0,.74-.17,1.9,1.9,0,0,0,.62-.52,1.44,1.44,0,0,0,.31-.71,3.81,3.81,0,0,0-.19-1.3c-.16-.56-.44-1.34-.85-2.35a14.23,14.23,0,0,0-1.12-2.35c-.36-.59-.75-.88-1.16-.88a1.83,1.83,0,0,0-1.06.31l-.78.55a1.6,1.6,0,0,1-1,.12c-.47,0-1-.13-1.66-.23s-1.31-.22-2-.31a12.65,12.65,0,0,0-2.18-.09,16.31,16.31,0,0,0-6,1.56,15,15,0,0,0-4.67,3.51,15.65,15.65,0,0,0-3,5.07,17.73,17.73,0,0,0-1.06,6.16,19.83,19.83,0,0,0,1.06,6.59,15.55,15.55,0,0,0,3.06,5.26,13.92,13.92,0,0,0,4.86,3.48,16.11,16.11,0,0,0,6.52,1.26,25,25,0,0,0,3.67-.31,39.15,39.15,0,0,0,4-.83,17.11,17.11,0,0,0,4.24-1.76q1.49-.95,1.49-2c-.16-.38-.32-.77-.47-1.19h-.19a4.58,4.58,0,0,1-.61-.21l-.52-.21h.14Z"/><path class="cls-9" d="M440.76,362a1.13,1.13,0,0,0,1.28-1.28,1,1,0,0,0-.52-.76l-1.19-.85q-1.28-.95-2-1.44a2.4,2.4,0,0,1-.95-1.21q-2.28-6.49-4.55-12.92t-4.55-12.92a2.23,2.23,0,0,0-1.42-1.14,6.27,6.27,0,0,0-2.08-.38,3,3,0,0,0-1.59.45,2.56,2.56,0,0,0-1.06,1.25q-2.18,6.59-4.2,13t-4.29,12.94a5.24,5.24,0,0,1-1.47,1.9q-1.09.95-2.37,1.94a3.3,3.3,0,0,0,.12,1c.08.24.34.36.78.36h7.73q1.33,0,1.33-1.28,0-.76-1.28-1.23a1.69,1.69,0,0,1-1.28-1.66,15.81,15.81,0,0,1,.59-3.18q.6-2.32,2-6.12,1.18-3.42,2-5.81a34.43,34.43,0,0,1,1.47-3.62c.12.28.36.89.71,1.8s.71,1.91,1.09,3,.72,2.1,1,3.06a19.2,19.2,0,0,1,.55,2,1.85,1.85,0,0,1-1.4.4l-1.73,0a5.41,5.41,0,0,0-2.16.33,1.31,1.31,0,0,0-.73,1.33,1.57,1.57,0,0,0,.28.93,2,2,0,0,0,1,.64,4.48,4.48,0,0,0,1.61.22,8.71,8.71,0,0,0,1.9-.26,8.17,8.17,0,0,1,2.84.29l1.42,4.55a1.13,1.13,0,0,1-.38,1.25,4.57,4.57,0,0,1-1.71,1q-1,.38-1,1.14c0,.85.44,1.28,1.33,1.28Z"/></g><g class="cls-10"><path class="cls-11" d="M657.07,267.45c8-12.66,42.88-28.72,86.53-38.79,2.22-.53,4.45-1,6.67-1.5-45,15.13-79.08,36.12-81.27,49.55l-.32.77c-4.12-1.74-8.62-3.44-13.43-5.18l.12-.36a.64.64,0,0,1,0-.28l.08,0s0-.08,0-.16a17.11,17.11,0,0,1,1.54-4.09"/><path class="cls-11" d="M637,261.79c8.54-17.72,61-41.79,127.1-57.08,3.24-.77,6.48-1.46,9.67-2.15C713.45,222.43,666.61,249,657.07,267.45a10.2,10.2,0,0,0-1.61,4.13s0,0,0,.08a.65.65,0,0,0,0,.29l-.12.36c-6-2.11-12.62-4.17-19.7-6.19a.27.27,0,0,1,0-.16c0-.28.13-.53.16-.81l.13,0h0a11.17,11.17,0,0,1,.89-3,4.07,4.07,0,0,0,.2-.4"/><path class="cls-11" d="M635.75,265.15c0,.28-.12.53-.16.81a.24.24,0,0,0,0,.16c-8.05-2.3-16.71-4.49-26-6.63l.28-1.3a2.37,2.37,0,0,1,.08-.53c3.64-23.58,75.4-58,167.47-79.28,4.25-1,8.45-1.94,12.62-2.83-80.05,26.37-141.94,62-153,86.24-.08.16-.12.28-.2.4a23.87,23.87,0,0,0-1.05,2.95"/><path class="cls-11" d="M590.77,344.67c0,.09.09.12.12.2l-32.32,14.44c-14.85-23.38-115.24-47.08-240.28-55.58,6-.08,12.05-.12,18.16-.12,119.82,0,220.34,14.68,248.21,34.5a32.34,32.34,0,0,1,6.11,6.55"/><path class="cls-11" d="M637.89,324.81,591,344.6a20.59,20.59,0,0,0-6.31-6.48c-35.44-29.73-173.29-58.57-342.13-69.33,8.7-.12,17.52-.16,26.37-.16,182,0,333.35,22.05,364.79,51.09.24.29.53.53.76.77a12.13,12.13,0,0,1,1.05,1.13,20.9,20.9,0,0,1,2,2.51c.13.25.29.45.41.69"/><path class="cls-11" d="M637.93,324.77a3.91,3.91,0,0,0-.44-.65,21.47,21.47,0,0,0-2-2.51,12.24,12.24,0,0,0-1-1.13,7.22,7.22,0,0,0-.77-.77c-39.48-39.8-223.13-79-449.49-93.36,11.33-.16,22.77-.2,34.34-.2,160.75,0,303.14,13.15,391,33.33,9.31,2.15,18,4.33,26,6.63,7.08,2,13.67,4.09,19.7,6.19,4.81,1.74,9.3,3.44,13.43,5.18,15.86,6.79,26.41,14,30.74,21.56L638,324.81a0,0,0,0,0,0,0"/></g><g class="cls-4"><path class="cls-12" d="M635.5,321.62a12.28,12.28,0,0,0-1.05-1.13,6.88,6.88,0,0,0-.77-.77c-39.48-39.8-223.13-79-449.49-93.36,11.32-.16,22.77-.2,34.34-.2,160.76,0,303.14,13.15,391,33.34,9.31,2.14,18,4.33,26,6.63,7.08,2,13.67,4.09,19.7,6.19,4.81,1.74,9.3,3.43,13.43,5.18,15.86,6.8,26.41,14,30.75,21.56a6.77,6.77,0,0,1,.6,1"/><path class="cls-12" d="M638.58,325.7c-.2-.28-.36-.61-.61-.89,0,0,0,0,0,0a3.63,3.63,0,0,0-.45-.65"/></g><polyline class="cls-12" points="635.87 325.7 637.89 324.86 637.98 324.81 699.42 299.05 700.02 298.81"/><g class="cls-4"><path class="cls-12" d="M591.21,345.36a4.2,4.2,0,0,0-.32-.49c0-.08-.09-.12-.12-.2a32.42,32.42,0,0,0-6.11-6.55c-35.44-29.73-173.29-58.57-342.13-69.33,8.7-.12,17.52-.16,26.37-.16,182,0,333.35,22,364.79,51.09.24.28.53.53.76.77a11.19,11.19,0,0,1,1.05,1.13,21,21,0,0,1,2,2.51c.12.25.29.44.41.69v0a6.83,6.83,0,0,1,.44.77"/></g><polyline class="cls-12" points="589.15 345.36 590.77 344.67 590.97 344.6 637.9 324.81 637.94 324.77 638.34 324.61"/><g class="cls-4"><path class="cls-12" d="M558.89,359.8a3.74,3.74,0,0,0-.32-.49c-14.84-23.38-115.24-47.09-240.28-55.58,6-.08,12.05-.12,18.16-.12,119.82,0,220.33,14.68,248.21,34.51a20.55,20.55,0,0,1,6.31,6.47c.08.08.12.12.12.2a4,4,0,0,1,.32.57"/></g><polyline class="cls-12" points="557.43 359.8 558.57 359.32 590.89 344.88 591.09 344.8 591.41 344.63"/><g class="cls-4"><path class="cls-12" d="M636.8,262.2a25,25,0,0,0-1.05,2.95c0,.29-.12.53-.16.81,0,0,0,.12,0,.16s0,.24-.08.36"/><path class="cls-12" d="M609.82,258.19a2.15,2.15,0,0,1,.09-.53c3.64-23.58,75.4-58,167.46-79.28,4.25-1,8.45-1.94,12.62-2.83-80.05,26.37-141.94,62-153,86.24"/></g><polyline class="cls-12" points="609.94 257.67 609.9 257.67 609.66 257.54"/><polyline class="cls-12" points="635.39 265.92 635.59 265.96 635.63 265.96 636.44 266.24"/><g class="cls-4"><path class="cls-12" d="M635.83,265.63a1.69,1.69,0,0,1,.09-.44,11,11,0,0,1,.89-3,2.93,2.93,0,0,0,.2-.4c8.54-17.72,61-41.79,127.1-57.08,3.24-.77,6.48-1.46,9.67-2.14C713.45,222.43,666.61,249,657.07,267.45a17.18,17.18,0,0,0-1.54,4.08c0,.08,0,.12,0,.16s0,.16,0,.25"/></g><polyline class="cls-12" points="635.67 265.15 635.75 265.15 635.87 265.19 635.91 265.19 636.72 265.47"/><polyline class="cls-12" points="655.45 271.58 655.49 271.54 655.53 271.54 656.21 271.78"/><g class="cls-4"><path class="cls-12" d="M655.37,271.94a.62.62,0,0,1,0-.28s0,0,0-.08a10.17,10.17,0,0,1,1.61-4.13c8-12.66,42.88-28.72,86.53-38.79,2.22-.53,4.45-1,6.67-1.5-45,15.13-79.08,36.12-81.27,49.55"/></g><polyline class="cls-12" points="655.29 271.62 655.41 271.66 655.49 271.7"/><line class="cls-12" x1="669.57" y1="276.59" x2="669.08" y2="276.48"/></g></g></svg>