<?xml version="1.0" standalone="no"?>
<!DOCTYPE svg PUBLIC "-//W3C//DTD SVG 20010904//EN"
 "http://www.w3.org/TR/2001/REC-SVG-20010904/DTD/svg10.dtd">
<svg version="1.0" xmlns="http://www.w3.org/2000/svg"
 width="16.000000pt" height="16.000000pt" viewBox="0 0 16.000000 16.000000"
 preserveAspectRatio="xMidYMid meet">
<metadata>
Created by potrace 1.11, written by Peter Selinger 2001-2013
</metadata>
<g transform="translate(0.000000,16.000000) scale(0.006130,-0.006130)"
fill="#000000" stroke="none">
<path d="M1075 2185 c-285 -64 -505 -280 -609 -600 -14 -44 -26 -84 -26 -90 0
-9 44 -12 81 -6 4 1 14 24 24 53 80 245 262 435 490 512 101 35 248 39 355 11
114 -30 279 -128 340 -202 102 -124 141 -189 181 -303 25 -70 29 -75 55 -75
34 0 34 6 3 105 -133 423 -518 679 -894 595z"/>
<path d="M582 1568 c-18 -18 -15 -36 8 -43 19 -6 20 -15 20 -177 0 -162 -1
-171 -22 -187 -13 -11 -19 -24 -15 -34 9 -24 128 -24 148 -1 10 13 9 19 -12
38 -23 21 -24 27 -21 125 l3 102 31 -43 c43 -60 79 -98 95 -98 7 0 34 32 59
70 26 39 48 70 48 70 1 0 1 -47 1 -105 -1 -95 -3 -106 -23 -126 -38 -34 -14
-49 78 -49 43 0 85 3 94 6 22 8 20 31 -4 46 -19 12 -20 24 -20 184 0 165 1
172 22 186 14 9 19 20 15 31 -5 13 -20 17 -70 17 -74 0 -83 -7 -141 -107 -20
-34 -40 -64 -45 -67 -4 -3 -26 20 -47 52 -74 108 -90 122 -143 122 -26 0 -52
-5 -59 -12z"/>
<path d="M1240 1572 c-44 -20 -71 -47 -80 -84 -19 -68 7 -107 116 -179 67 -43
95 -89 73 -115 -23 -28 -105 -10 -138 30 -16 19 -50 21 -52 4 -8 -67 16 -124
51 -121 43 4 54 4 111 -1 104 -9 176 54 164 143 -8 57 -71 132 -141 165 -40
20 -68 52 -61 71 10 25 60 17 106 -17 40 -29 45 -30 56 -14 10 13 10 27 3 54
-18 67 -19 67 -110 69 -46 1 -90 -2 -98 -5z"/>
<path d="M1558 1572 c-27 -5 -28 -28 -3 -50 22 -20 23 -24 22 -187 0 -151 -2
-167 -19 -176 -23 -12 -24 -45 0 -51 9 -2 50 -4 91 -4 60 1 76 4 85 19 9 15 7
21 -9 33 -17 13 -20 27 -21 94 l-1 80 38 0 c52 0 69 8 69 35 0 30 -22 47 -57
45 -49 -4 -50 -2 -49 48 l1 47 50 0 c36 -1 60 -7 82 -23 32 -22 32 -22 43 -3
8 15 7 29 -4 56 -8 19 -19 36 -23 36 -21 3 -280 4 -295 1z"/>
<path d="M2535 1339 c-16 -6 -37 -12 -46 -14 -36 -8 -210 -71 -283 -102 -191
-81 -346 -189 -376 -264 -9 -20 -18 -28 -29 -25 -92 25 -365 77 -481 91 -25 3
-61 7 -80 10 -129 16 -189 22 -315 30 -55 4 -110 8 -122 10 -90 14 -756 25
-769 13 -12 -13 -2 -16 71 -23 39 -3 86 -8 105 -10 19 -2 62 -7 95 -10 33 -4
76 -8 95 -11 19 -2 58 -6 85 -9 28 -3 61 -8 75 -10 14 -2 45 -7 70 -10 25 -3
56 -8 70 -10 118 -19 158 -25 175 -29 11 -2 61 -11 110 -20 202 -38 519 -125
670 -185 64 -26 53 -26 -41 -1 -84 23 -321 64 -429 75 -38 4 -79 9 -90 11 -10
2 -62 6 -115 10 -52 3 -111 8 -130 10 -19 2 -156 7 -304 10 -218 6 -268 4
-264 -6 5 -15 13 -17 118 -25 41 -4 86 -8 100 -10 14 -2 52 -7 85 -10 33 -3
85 -10 115 -15 30 -5 75 -12 100 -15 25 -3 52 -8 60 -10 8 -3 31 -7 50 -9 149
-19 602 -137 587 -153 -2 -2 -33 3 -68 11 -35 9 -82 18 -104 20 -22 3 -51 8
-65 11 -14 3 -59 8 -100 11 -41 3 -86 8 -100 10 -14 3 -123 8 -244 11 -176 4
-218 3 -214 -7 5 -15 7 -15 114 -25 44 -3 88 -8 99 -10 11 -2 40 -7 65 -10
293 -34 625 -139 702 -221 l30 -32 77 43 c42 23 176 92 298 154 122 61 225
116 228 121 6 10 -54 73 -99 105 -29 21 -29 21 -12 47 26 40 115 104 213 155
92 47 110 59 101 68 -6 6 -130 -34 -200 -64 -27 -11 -48 -19 -48 -17 0 13 220
134 308 169 39 16 57 37 31 37 -41 0 -245 -73 -354 -127 -61 -30 -66 -31 -40
-9 53 44 234 147 353 201 64 29 118 58 120 64 4 13 -12 13 -53 0z"/>
</g>
</svg>
